# xmcd
#
# Track frame offsets:
#	150
#	25877
#	43870
#	73267
#	90765
#	109072
#	148182
#	172122
#	194522
#	214902
#	235647
#	255397
#	274042
#	289700
#	307340
#
# Disc length: 4455
#
# Revision: 4
# Processed by: cddbd v1.5.1PL0 Copyright (c) Steve Scherf et al.
# Submitted via: CDex 1.50
# Normalized: r3:DSETVAR1,TDELIM( - )
#
DISCID=e311650f
DTITLE=Various Artist - Secrets of the World [CD1)
DYEAR=1995
DGENRE=New Age
TTITLE0=Dead Can Dance - Nierika
TTITLE1=Robbie Robertson and the Redroad Ensemble - Coyote Dance
TTITLE2=Deep Forrset feat. Jon Anderson - Speed Deep
TTITLE3=Marcome - Time to Follow
TTITLE4=Anugama - Kokopelli's Ritual
TTITLE5=Enigma of Faith - Faith Healing
TTITLE6=Osamu Kitajima - Blue Fire
TTITLE7=Oliver Shanti and Friends - Boddhistattva Land
TTITLE8=Vangelis - Come to Me
TTITLE9=Okolokolo - Ekahalat
TTITLE10=Celestial - Trans-Mongolian Express
TTITLE11=Sacreed Spirit - Dawa
TTITLE12=Capercaillie - Ailein Durrin
TTITLE13=DJ Dado - Temple of Fire
TTITLE14=Karmapa - Ocean of Joy
EXTD=YEAR: 1995
EXTT0=
EXTT1=
EXTT2=
EXTT3=
EXTT4=
EXTT5=
EXTT6=
EXTT7=
EXTT8=
EXTT9=
EXTT10=
EXTT11=
EXTT12=
EXTT13=
EXTT14=
PLAYORDER=
